<?xml version="1.0" standalone="no"?>
<!DOCTYPE svg PUBLIC "-//W3C//DTD SVG 20010904//EN"
 "http://www.w3.org/TR/2001/REC-SVG-20010904/DTD/svg10.dtd">
<svg version="1.0" xmlns="http://www.w3.org/2000/svg"
 width="501.000000pt" height="501.000000pt" viewBox="0 0 501.000000 501.000000"
 preserveAspectRatio="xMidYMid meet">
<metadata>
Created by potrace 1.11, written by Peter Selinger 2001-2013
</metadata>
<g transform="translate(0.000000,501.000000) scale(0.100000,-0.100000)"
fill="#000000" stroke="none">
<path d="M734 4882 c-21 -26 -38 -53 -36 -60 2 -7 -2 -20 -9 -28 -6 -8 -8 -25
-5 -39 6 -23 -10 -63 -24 -62 -18 0 -49 -16 -45 -24 4 -5 -1 -9 -9 -9 -17 0
-41 -38 -31 -48 4 -4 32 -16 63 -27 40 -14 57 -25 57 -38 0 -10 11 -23 25 -30
14 -7 26 -20 28 -30 3 -14 0 -16 -21 -8 -31 12 -63 -8 -54 -32 4 -11 -3 -26
-20 -41 -22 -21 -24 -27 -14 -40 8 -9 21 -16 30 -16 9 0 23 -5 31 -10 13 -8
12 -11 -5 -23 -17 -13 -18 -19 -8 -50 13 -44 7 -52 -40 -60 -45 -7 -79 -42
-72 -74 4 -18 -1 -22 -32 -30 -50 -12 -51 -32 -3 -65 42 -29 53 -54 21 -45
-10 2 -25 1 -32 -4 -12 -7 -11 -13 4 -36 10 -15 25 -43 34 -60 21 -42 29 -41
43 2 8 23 18 35 30 35 10 0 25 11 34 25 9 14 21 25 26 25 17 0 11 -21 -12 -41
-23 -19 -23 -19 13 -3 35 16 89 14 89 -4 0 -4 -66 -45 -148 -92 -81 -46 -163
-99 -182 -117 -42 -37 -77 -103 -88 -164 -4 -24 -7 -523 -7 -1109 1 -996 2
-1068 19 -1118 33 -96 80 -134 396 -315 157 -90 490 -282 740 -427 250 -144
471 -272 490 -282 19 -11 93 -54 163 -95 161 -93 199 -111 262 -116 107 -9 14
-59 1624 872 218 125 390 231 412 253 20 20 47 58 60 85 l24 48 0 1115 0 1115
-27 50 c-14 28 -42 66 -61 85 -20 19 -189 123 -376 230 -246 141 -341 200
-343 215 -2 11 -21 30 -43 42 -22 13 -46 27 -54 32 -18 11 -22 144 -5 194 13
37 12 41 -41 145 l-55 107 3 -50 c2 -27 7 -57 11 -66 6 -13 -1 -16 -41 -17
-60 -1 -121 -26 -134 -55 -8 -18 -7 -32 4 -58 14 -30 15 -31 16 -10 2 46 16 9
17 -45 1 -47 -8 -71 -18 -46 -2 7 -170 107 -368 220 -19 10 -127 73 -240 138
-228 131 -261 145 -337 145 -68 0 -110 -13 -205 -68 -97 -56 -131 -66 -150
-46 -8 8 -24 16 -34 18 -55 9 -130 19 -138 17 -4 -2 -17 0 -28 4 -16 5 -19 13
-16 35 6 38 -4 44 -44 25 -18 -8 -51 -17 -73 -20 -21 -3 -52 -15 -67 -26 -15
-11 -43 -20 -63 -20 -19 0 -35 -5 -35 -10 0 -6 -11 -8 -27 -3 -16 3 -36 6 -45
5 -10 0 -18 5 -18 13 0 7 -13 23 -30 35 -18 13 -27 26 -23 36 3 8 8 13 10 10
3 -3 10 0 17 5 6 5 20 16 31 24 17 12 18 16 5 24 -8 5 -17 8 -20 6 -8 -4 -159
-18 -218 -19 -46 -1 -56 -5 -74 -28 -27 -38 -85 -39 -134 -2 -31 24 -39 26
-98 19 -56 -6 -70 -3 -114 19 -82 42 -94 41 -138 -12z m187 -127 c16 5 19 1
19 -24 0 -16 -4 -33 -10 -36 -13 -8 -13 -35 0 -35 5 0 7 6 4 14 -7 18 31 40
49 29 6 -4 17 -8 22 -8 16 0 12 -27 -5 -35 -54 -27 -71 -32 -95 -28 -20 4 -30
-1 -46 -23 -27 -38 -39 -36 -77 7 -34 38 -32 63 8 84 26 14 28 14 35 -20 9
-41 20 -31 24 21 1 29 9 50 24 63 20 20 22 20 25 3 3 -13 9 -16 23 -12z m980
-25 c13 -7 25 -7 38 0 20 10 40 -3 22 -14 -5 -3 -7 -15 -4 -25 3 -13 -1 -20
-14 -23 -17 -3 -16 -5 5 -23 27 -24 28 -35 4 -35 -10 0 -22 -3 -26 -7 -4 -4
-27 -6 -51 -4 -29 2 -45 -2 -45 -9 0 -7 -5 -8 -12 -3 -7 4 -22 8 -33 9 -61 2
-75 5 -75 16 0 6 -7 20 -17 30 -15 17 -14 18 35 18 58 0 70 15 35 46 l-23 20
36 -4 c25 -3 39 -11 46 -28 12 -27 34 -30 61 -10 30 23 21 39 -17 32 -19 -4
-37 -2 -40 3 -4 5 6 12 21 14 16 2 29 5 31 6 2 0 12 -4 23 -9z m-498 -87 c11
-17 -3 -43 -22 -43 -28 0 -29 7 -12 65 16 55 16 55 22 22 3 -18 8 -38 12 -44z
m1153 43 c29 -10 149 -74 172 -91 1 -1 -2 -14 -8 -29 -13 -36 -36 -28 -32 11
3 27 -1 32 -29 42 -63 22 -82 12 -57 -29 19 -29 7 -31 -50 -10 -57 22 -59 21
-65 -37 -2 -17 -14 -54 -28 -82 -24 -51 -24 -51 -71 -51 -27 0 -48 -4 -48 -9
0 -9 -41 -23 -48 -16 -2 2 13 12 35 23 21 11 46 29 56 40 18 20 18 21 -13 37
-18 9 -29 19 -26 22 3 3 -4 21 -15 39 -11 19 -19 46 -18 61 2 16 0 33 -4 39
-6 10 30 30 83 48 31 10 129 5 166 -8z m-427 -63 c20 2 26 -4 33 -30 5 -18 13
-33 17 -33 12 0 8 -24 -4 -28 -6 -2 -17 -8 -26 -13 -12 -6 -19 -2 -27 16 -13
27 -31 32 -50 13 -9 -9 -12 -8 -12 5 0 15 11 22 33 18 14 -2 7 27 -9 33 -26
10 -36 7 -30 -9 3 -8 1 -15 -4 -15 -6 0 -10 3 -11 8 0 4 -2 17 -5 28 -3 20 -1
21 34 14 20 -4 48 -7 61 -7z m-759 -143 c0 -57 -3 -71 -18 -79 -29 -15 -44 0
-28 30 16 32 30 79 29 102 0 9 4 17 8 17 5 0 9 -31 9 -70z m1717 -94 c242
-138 275 -155 296 -145 18 8 22 17 19 38 -3 22 1 29 17 34 16 4 21 13 21 35 0
37 16 50 23 20 4 -12 1 -26 -6 -30 -6 -4 -9 -8 -7 -10 30 -19 53 -28 60 -23 6
4 10 -46 11 -132 3 -863 10 -1528 17 -1532 4 -3 8 -153 8 -334 l0 -327 -93 0
c-72 0 -92 3 -87 12 5 7 9 81 10 166 2 123 6 158 19 178 16 24 16 26 -1 22 -9
-1 -25 -14 -35 -28 -15 -21 -19 -52 -23 -182 -3 -114 -1 -158 7 -162 7 -2 -2
-5 -19 -5 -21 -1 -38 7 -55 25 -37 39 -78 66 -113 73 l-31 7 3 99 c3 77 8 108
23 134 23 39 18 49 -15 31 -36 -19 -49 -61 -50 -165 -1 -52 -3 -96 -6 -98 -10
-10 -165 -11 -164 -1 1 5 5 51 8 103 4 67 11 100 23 113 20 22 12 32 -21 24
-16 -4 -26 -15 -30 -33 -6 -30 -19 -177 -18 -204 0 -12 -11 -18 -41 -22 -23
-2 -49 -8 -57 -11 -9 -4 -28 5 -45 20 -46 40 -73 56 -107 63 -17 4 -32 13 -33
22 -2 9 -6 175 -9 370 l-7 354 35 54 c35 54 35 54 18 84 -49 86 -183 187 -309
232 -110 40 -102 29 26 -36 136 -69 171 -96 171 -135 0 -29 2 -29 -120 -9 -87
14 -171 20 -245 18 -87 -2 -251 -29 -200 -33 17 -1 35 -3 40 -5 6 -1 23 -3 39
-3 56 -3 14 -17 -52 -17 -37 -1 -86 -7 -109 -14 -36 -12 -41 -16 -32 -32 9
-17 21 -19 112 -16 74 2 95 1 76 -6 l-26 -10 -3 -231 c-6 -606 -6 -597 10
-607 13 -7 13 -8 0 -9 -12 -1 -12 -2 2 -10 10 -6 14 -18 11 -31 -5 -18 -11
-20 -47 -15 -22 3 -49 5 -58 5 -24 1 -23 23 2 39 11 7 20 18 20 26 0 10 -18
13 -77 12 l-78 -1 3 245 c3 207 5 304 11 466 1 20 3 20 64 8 96 -21 94 -22 96
40 0 35 -4 55 -12 58 -16 6 -53 3 -153 -12 l-80 -13 21 -22 c19 -18 22 -31 20
-81 -2 -32 -6 -178 -10 -324 -4 -146 -8 -284 -9 -308 -1 -24 2 -45 6 -48 14
-9 9 -34 -6 -34 -8 0 -21 -7 -30 -15 -12 -12 -20 -13 -40 -4 -18 9 -29 9 -38
1 -7 -6 -31 -17 -54 -24 -40 -14 -41 -14 -57 14 -26 45 -60 55 -105 32 -55
-30 -79 -22 -87 29 -4 23 -9 49 -10 57 -10 59 -29 183 -46 310 -6 41 -12 86
-14 100 -6 44 -14 104 -19 140 -14 115 -19 147 -23 165 -11 52 -13 303 -2 335
19 54 202 270 229 270 5 0 18 10 30 22 19 21 23 21 72 8 86 -21 106 -17 153
35 39 42 44 45 70 35 15 -6 44 -10 64 -9 20 1 59 -1 86 -6 28 -4 55 -7 60 -6
6 2 30 4 55 5 64 5 85 13 100 40 14 27 6 48 -15 40 -8 -4 -12 -10 -9 -15 3 -5
-4 -9 -16 -9 -14 0 -20 -5 -18 -17 4 -22 -49 -26 -61 -5 -5 8 -22 15 -40 16
-17 1 -31 6 -31 14 0 6 -7 12 -15 12 -32 0 -62 29 -58 54 l5 24 41 -18 c47
-21 62 -18 47 11 -10 17 -9 18 15 7 18 -8 25 -18 22 -30 -8 -30 61 -49 71 -19
4 11 -3 13 -34 8 -23 -4 -33 -3 -25 2 7 5 10 14 6 21 -6 9 -2 9 16 0 20 -11
25 -10 46 15 20 23 30 27 58 22 42 -7 51 4 29 38 -16 24 -16 27 1 45 10 11 22
43 26 72 9 56 20 68 62 68 15 0 39 7 53 17 14 9 48 20 76 24 60 10 82 25 56
40 -37 21 -8 83 36 78 31 -4 68 11 63 24 -23 61 -16 72 52 82 44 6 91 30 91
46 0 5 -13 15 -30 24 -30 16 -41 44 -17 46 68 6 89 10 109 21 l23 13 -23 3
c-33 5 -21 26 18 32 38 6 50 25 20 33 -28 7 -25 26 6 37 15 6 22 14 18 22 -4
6 -3 9 2 6 5 -3 131 -76 281 -162z m-822 58 c26 -17 35 -40 13 -31 -23 8 -58
-11 -58 -32 0 -21 -27 -41 -53 -41 -11 0 -13 10 -9 48 6 56 7 58 26 43 12 -10
18 -9 33 8 21 25 18 25 48 5z m1192 -36 c-3 -7 -5 -2 -5 12 0 14 2 19 5 13 2
-7 2 -19 0 -25z m59 -54 c-8 -29 -32 -32 -39 -4 -4 15 0 20 14 20 14 0 19 8
20 33 2 31 2 32 6 3 3 -15 2 -39 -1 -52z m94 -5 c0 -24 -4 -38 -10 -34 -5 3
-10 22 -10 41 0 19 5 34 10 34 6 0 10 -18 10 -41z m-2040 11 c0 -11 -4 -20 -9
-20 -5 0 -13 -9 -16 -20 -3 -11 -13 -20 -21 -20 -19 0 -18 9 6 48 22 36 40 42
40 12z m1990 -10 c0 -11 5 -20 12 -20 6 0 9 -3 5 -6 -3 -3 -15 -3 -26 1 -24 7
-29 45 -6 45 8 0 15 -9 15 -20z m-2235 -27 c-4 -18 -1 -29 12 -38 15 -12 16
-17 6 -34 -11 -17 -10 -21 7 -26 16 -5 20 -15 20 -55 0 -46 -1 -49 -22 -41
-13 5 -22 17 -23 32 -3 49 -17 154 -21 161 -2 3 -1 13 2 22 10 25 26 7 19 -21z
m701 -47 c2 -25 -1 -46 -5 -46 -9 0 -19 71 -13 90 7 20 14 2 18 -44z m294 47
c-8 -3 -36 -14 -62 -24 -27 -10 -48 -15 -48 -11 0 9 85 40 110 40 13 0 13 0 0
-5z m198 -29 c34 -6 21 -23 -38 -50 -45 -22 -46 -22 -83 -2 -21 10 -35 23 -32
28 10 16 53 11 64 -7 6 -11 11 -13 12 -5 1 6 2 17 3 23 1 15 37 29 51 21 6 -4
16 -7 23 -8z m-1245 -34 c21 0 19 -20 -4 -30 -8 -4 -28 -14 -44 -23 -29 -15
-34 -14 -75 4 -35 16 -41 22 -30 29 22 14 41 12 62 -7 17 -15 18 -15 18 5 0
24 30 46 45 31 5 -5 17 -9 28 -9z m-403 -25 c13 -14 19 -25 14 -25 -5 -1 2 -7
16 -16 l25 -15 -25 7 c-22 5 -23 5 -10 -9 18 -19 70 -12 70 9 0 12 -12 16 -36
13 -7 -1 -24 22 -24 33 0 4 12 1 27 -7 15 -8 30 -12 35 -9 4 3 8 -2 8 -11 0
-9 12 -18 30 -22 17 -3 29 -11 27 -17 -3 -6 -10 -10 -16 -8 -7 1 -10 -2 -6 -8
3 -5 -5 -14 -19 -20 -19 -7 -25 -16 -23 -32 2 -20 -2 -23 -25 -20 -24 2 -28
-1 -28 -21 0 -18 -7 -26 -25 -29 -33 -7 -48 13 -40 54 6 31 5 32 -10 13 -12
-15 -19 -17 -33 -9 -9 6 -18 21 -20 33 -2 12 -17 30 -33 40 -22 13 -26 20 -16
24 9 3 13 14 10 31 l-5 25 38 -20 c35 -17 74 -25 74 -15 0 3 -4 16 -10 30 -12
33 0 33 30 1z m1350 -40 c54 -1 81 -12 74 -30 -3 -7 -1 -16 5 -20 6 -3 11 -18
11 -32 0 -18 -4 -24 -15 -20 -8 4 -17 2 -20 -3 -9 -14 -25 -12 -25 3 0 23 -21
37 -41 27 -11 -7 -20 -7 -24 -1 -5 9 27 33 37 28 2 -1 -5 6 -16 17 -20 18 -21
18 -27 -5 -4 -13 -7 -22 -8 -19 -1 3 -5 20 -10 38 -7 24 -7 31 2 25 7 -4 32
-8 57 -8z m-736 -12 c4 -9 1 -20 -6 -24 -12 -7 -25 9 -27 34 -2 14 27 7 33
-10z m-282 -156 c6 -12 12 -29 13 -37 3 -33 17 -61 36 -70 10 -6 19 -21 18
-33 l0 -22 -9 21 c-5 12 -13 25 -19 29 -6 3 -22 28 -35 54 -14 26 -32 53 -40
60 -9 8 -16 20 -16 28 0 20 36 -1 52 -30z m-81 8 c3 -16 -83 -54 -106 -48 -11
3 -31 13 -44 21 -23 16 -23 16 -2 24 23 8 51 1 51 -13 0 -5 5 -9 10 -9 6 0 10
9 10 19 0 11 8 21 18 23 23 5 61 -5 63 -17z m2904 -190 c121 -70 236 -136 255
-147 55 -31 99 -78 128 -138 l27 -55 0 -1035 -1 -1035 -26 -55 c-31 -64 -41
-77 -88 -112 -27 -20 -481 -285 -775 -453 -22 -12 -137 -79 -255 -147 -613
-355 -717 -413 -759 -424 -51 -13 -120 -9 -166 8 -16 7 -156 85 -310 173 -154
89 -341 197 -415 240 -74 43 -151 87 -170 98 -314 177 -845 488 -875 513 -22
17 -54 56 -70 85 l-30 54 -3 1033 c-1 670 1 1047 8 1071 23 86 83 147 220 223
25 14 68 38 95 55 78 46 83 46 100 13 8 -16 15 -54 15 -84 0 -30 5 -58 10 -61
6 -4 43 -1 83 6 117 19 144 17 187 -19 l34 -29 -60 -38 c-32 -21 -94 -51 -137
-66 -44 -15 -89 -35 -102 -43 -29 -19 -63 -90 -65 -136 -3 -53 -1 -74 6 -67
14 14 81 -98 89 -148 5 -27 9 -52 10 -55 4 -19 16 -81 21 -115 19 -132 48
-230 63 -220 11 6 17 -11 26 -75 13 -88 16 -103 25 -119 10 -19 -13 -91 -60
-188 -33 -68 -47 -83 -56 -59 -12 31 -20 6 -18 -57 l2 -65 -31 -6 c-17 -4 -44
-19 -60 -33 -41 -40 -88 -37 -157 10 -57 39 -99 47 -119 23 -9 -11 -11 -103
-9 -353 3 -324 4 -340 25 -378 28 -53 73 -93 158 -142 242 -140 1316 -759
1345 -776 19 -10 71 -40 115 -66 142 -84 209 -98 295 -63 32 13 331 184 1310
750 195 113 368 219 384 236 16 17 38 51 49 76 19 42 20 66 21 351 l2 305 -22
-4 c-17 -3 -25 4 -40 37 -11 26 -27 44 -40 47 -25 6 -30 29 -40 179 -11 154
-12 170 -13 182 -1 7 -4 12 -8 11 -7 -1 -82 8 -133 17 -8 1 -54 8 -102 15 -64
10 -89 17 -92 29 -3 9 -8 81 -11 161 -4 80 -8 179 -10 220 -2 41 -6 122 -9
180 -3 58 -8 168 -12 245 -3 77 -8 163 -9 190 -2 28 -6 120 -10 205 -4 85 -7
157 -7 160 -1 17 5 19 25 6 12 -8 121 -72 242 -141z m-2145 100 c7 -8 16 -13
20 -10 5 3 16 -2 25 -11 9 -10 29 -17 45 -16 20 0 34 -7 45 -25 10 -14 12 -22
6 -19 -10 6 -17 -28 -12 -57 2 -14 -27 -38 -34 -27 -3 5 -23 10 -43 10 -27 0
-33 3 -24 12 19 19 -4 48 -40 48 -26 0 -29 2 -18 15 7 8 17 12 22 9 6 -4 14 0
19 7 13 21 11 27 -10 34 -10 3 -21 15 -24 25 -6 24 6 26 23 5z m-20 -41 c0 -8
-4 -14 -10 -14 -5 0 -10 9 -10 21 0 11 5 17 10 14 6 -3 10 -13 10 -21z m-626
-20 c9 -3 16 -17 16 -30 0 -14 11 -51 25 -84 14 -33 25 -66 25 -73 0 -19 -26
-41 -34 -29 -3 5 -27 19 -52 31 -38 18 -62 22 -138 20 l-91 -2 -5 29 -6 29 -7
-32 c-9 -47 -22 -41 -22 11 0 25 1 43 3 42 1 -2 16 9 33 25 36 33 99 46 154
30 41 -11 65 -2 65 25 0 15 10 17 34 8z m-277 -56 c3 -17 1 -19 -11 -9 -8 7
-12 19 -9 27 7 18 16 10 20 -18z m489 17 c5 -12 16 -14 53 -9 43 6 49 4 64
-20 15 -22 25 -26 67 -26 37 0 50 -4 50 -14 0 -8 -5 -16 -10 -18 -6 -2 -2 -13
10 -25 l20 -22 -47 -48 c-27 -26 -56 -47 -65 -46 -10 0 -24 1 -31 2 -28 2
-100 60 -128 101 -29 42 -35 73 -23 118 7 25 32 30 40 7z m-146 -4 c0 -16 -12
-41 -19 -41 -4 0 -7 11 -7 25 0 14 6 25 13 25 7 0 13 -4 13 -9z m507 -187 c-7
-7 -37 7 -37 17 0 6 9 5 21 -1 11 -7 19 -14 16 -16z m536 -702 c5 -7 14 -9 20
-6 7 4 8 3 4 -1 -16 -18 -56 -16 -66 3 -8 15 -6 18 12 18 12 -1 26 -7 30 -14z
m156 -3 c28 -6 53 -14 56 -18 2 -4 -17 -2 -43 4 -26 7 -56 15 -67 18 -39 10 5
7 54 -4z m-3 -182 c2 -50 4 -146 4 -212 1 -80 5 -112 11 -97 10 27 15 28 29 1
16 -28 18 -43 26 -171 3 -62 8 -121 10 -130 1 -11 -6 -23 -19 -29 -12 -7 -26
-18 -30 -25 -13 -22 -40 -17 -34 6 4 15 0 20 -14 21 -10 1 -23 3 -29 4 -5 1
-16 3 -23 4 -11 1 -14 27 -15 114 -3 404 -3 590 2 594 7 7 70 21 75 16 3 -2 6
-45 7 -96z m-166 50 c0 -20 0 -20 14 -1 31 41 35 3 37 -344 1 -188 5 -342 10
-342 5 0 9 -4 9 -10 0 -5 -8 -10 -17 -10 -15 0 -16 -2 -3 -10 13 -8 12 -10 -3
-10 -10 0 -20 -7 -23 -15 -8 -19 -64 -17 -64 2 0 7 4 13 8 13 5 0 14 11 20 25
l12 25 -65 0 -65 0 -1 63 c0 34 -2 78 -4 97 -1 19 2 43 7 53 8 15 3 17 -48 17
-54 0 -56 -1 -42 -17 9 -10 14 -27 12 -38 -2 -11 -4 -54 -5 -95 -1 -41 -6 -77
-10 -81 -5 -3 -24 -3 -42 -1 l-32 4 -1 344 0 343 126 3 c69 2 135 4 148 4 16
1 22 -4 22 -19z m-1279 -992 c38 -20 49 -50 49 -130 0 -100 -23 -132 -100
-138 l-35 -3 -1 -77 c-1 -43 -4 -81 -8 -85 -4 -4 -21 -7 -37 -8 l-29 0 0 228
0 228 65 0 c40 0 78 -6 96 -15z m155 -82 l-1 -98 43 -1 42 -1 0 98 0 99 35 0
34 0 3 -213 c2 -118 2 -221 0 -229 -2 -11 -14 -15 -38 -15 l-34 1 0 98 0 98
-40 0 c-45 0 -42 8 -42 -117 0 -40 -3 -73 -7 -74 -37 -6 -61 -4 -64 5 -3 9 -3
76 2 399 1 46 1 47 34 47 l33 0 0 -97z m275 70 c6 -215 3 -423 -6 -426 -5 -2
-21 -3 -35 -2 l-25 2 0 219 c0 120 1 222 3 227 2 4 16 7 33 7 25 0 29 -4 30
-27z m311 16 c20 -11 48 -65 48 -94 0 -10 -10 -15 -34 -15 -30 0 -35 3 -38 28
-3 23 -8 27 -33 27 -28 0 -30 -3 -33 -38 -3 -34 2 -43 54 -95 61 -61 84 -103
84 -152 0 -43 -26 -89 -56 -100 -79 -31 -154 12 -154 88 0 43 9 51 48 44 15
-3 21 -9 18 -19 -7 -18 8 -49 28 -56 9 -4 22 1 31 9 29 29 18 63 -40 123 -56
59 -85 112 -85 156 0 32 24 81 47 94 24 14 89 14 115 0z m159 -99 c1 -60 1
-150 1 -200 0 -159 2 -149 -34 -146 l-33 3 -1 226 -1 227 33 0 34 0 1 -110z
m225 87 c21 -18 28 -35 32 -75 l5 -52 -32 0 c-27 0 -31 4 -31 26 0 14 -5 34
-10 45 -13 23 -55 25 -64 3 -3 -9 -6 -80 -6 -159 0 -131 2 -145 19 -154 33
-18 55 9 56 68 1 47 -4 56 -28 52 -4 -1 -7 15 -5 34 2 35 2 35 51 35 l49 0 -4
-104 c-3 -115 -14 -139 -70 -151 -52 -12 -97 3 -118 38 -18 28 -20 51 -20 185
0 200 14 231 107 232 30 0 50 -7 69 -23z m193 -49 c6 -40 13 -82 15 -94 2 -12
7 -45 11 -75 7 -57 20 -84 22 -48 1 12 9 62 17 113 8 50 18 110 21 134 l7 42
48 0 48 0 -2 -227 c-1 -212 -2 -226 -20 -229 -44 -6 -46 0 -46 164 0 85 -2
153 -4 151 -2 -2 -7 -33 -10 -69 -4 -36 -11 -92 -16 -125 -6 -33 -11 -69 -13
-80 -4 -33 -16 -44 -45 -41 -30 3 -32 12 -66 231 l-14 90 -1 -161 -1 -161 -25
0 c-14 0 -27 3 -30 7 -5 8 -7 131 -6 318 l1 132 49 0 49 0 11 -72z m401 62 c0
-6 13 -88 30 -183 16 -94 32 -193 35 -218 l6 -46 -35 0 c-20 0 -36 5 -37 11
-4 62 -15 75 -58 74 -39 0 -41 -2 -48 -41 -8 -37 -12 -42 -40 -43 -27 -1 -31
1 -27 19 2 12 6 39 9 62 4 22 13 81 21 130 8 50 20 119 25 155 6 36 12 71 14
78 5 15 105 17 105 2z m358 -1 c44 -15 62 -60 59 -147 -2 -52 -8 -77 -22 -92
-20 -22 -79 -42 -101 -33 -11 4 -14 -11 -14 -81 0 -47 -3 -86 -7 -87 -43 -6
-63 -4 -65 5 -2 6 -3 72 -2 146 1 74 2 172 3 218 l1 82 59 0 c32 0 72 -5 89
-11z m163 -81 c1 -110 1 -326 0 -350 -1 -12 -9 -16 -33 -14 l-33 3 -1 226 0
227 33 0 33 0 1 -92z m227 0 c7 -46 15 -92 18 -104 7 -26 -23 -29 -32 -2 -7
24 -40 23 -47 -2 -6 -25 -27 -27 -27 -2 0 9 7 55 15 102 8 47 15 86 15 88 0 1
10 2 23 2 21 0 24 -7 35 -82z m68 6 c2 -109 1 -105 30 -100 19 4 25 1 22 -11
-3 -18 -31 -26 -63 -18 -19 4 -20 11 -18 92 1 48 2 94 2 101 1 8 7 12 14 9 8
-2 12 -27 13 -73z m152 64 c14 -14 16 -76 3 -96 -4 -7 -18 -14 -29 -15 -20 -1
-27 -21 -21 -63 1 -9 -23 -24 -31 -19 -4 3 -5 80 -1 183 1 18 7 22 34 22 18 0
38 -5 45 -12z m62 -34 c0 -38 3 -45 18 -42 12 2 18 15 20 46 2 28 8 42 18 42
11 0 14 -20 14 -104 0 -94 -2 -104 -17 -102 -15 2 -18 12 -16 48 2 38 0 45
-15 44 -12 -1 -18 -13 -22 -45 -5 -48 -26 -67 -32 -29 -2 13 -2 60 0 106 3 63
7 82 18 82 10 0 14 -13 14 -46z m177 -34 c19 -106 20 -123 6 -127 -6 -2 -14 5
-18 16 -8 27 -41 27 -48 1 -6 -25 -27 -27 -27 -2 0 9 7 55 15 102 8 47 15 86
15 88 0 2 10 2 22 0 20 -3 24 -13 35 -78z m-343 -185 c23 -133 25 -177 9 -182
-8 -3 -13 4 -13 16 0 16 -6 21 -25 21 -18 0 -25 -5 -25 -18 0 -10 -7 -19 -15
-19 -18 0 -18 3 -5 87 18 113 20 119 43 122 28 5 25 7 31 -27z m114 21 c12 -4
23 -14 23 -22 1 -8 2 -20 3 -26 4 -29 -17 -68 -40 -74 -19 -5 -24 -13 -24 -39
0 -39 -15 -54 -27 -28 -7 14 -9 163 -4 193 1 8 41 5 69 -4z m133 -23 c18 -47
-8 -103 -48 -103 -8 0 -13 -14 -13 -40 0 -31 -3 -38 -15 -34 -12 5 -15 26 -15
104 0 95 1 99 23 102 37 6 58 -3 68 -29z m98 -25 c22 -135 23 -155 7 -155 -9
0 -16 9 -16 19 0 28 -46 24 -54 -4 -4 -17 -8 -20 -17 -11 -8 8 -8 25 0 64 11
55 19 104 20 126 1 6 11 14 24 16 12 2 23 5 23 6 1 0 7 -27 13 -61z m-512 12
c-2 -22 -3 -40 -1 -40 2 0 13 18 24 40 11 22 27 40 35 40 12 0 11 -8 -7 -44
l-21 -45 21 -54 c19 -51 20 -67 2 -67 -4 0 -15 18 -25 40 -19 42 -37 46 -29 6
2 -13 -3 -29 -11 -36 -18 -15 -17 -19 -20 103 -2 89 0 97 17 97 16 0 18 -6 15
-40z m-1289 -295 c-3 -3 -18 -8 -34 -11 -15 -3 -31 -7 -35 -10 -13 -8 3 -45
20 -43 30 3 54 -1 48 -7 -4 -4 -21 -8 -39 -8 -27 -2 -32 -6 -30 -21 5 -26 6
-27 41 -29 49 -2 36 -16 -14 -16 l-45 0 0 75 0 75 47 0 c25 0 44 -2 41 -5z
m102 -10 c10 -12 6 -13 -24 -8 -31 5 -36 3 -36 -14 0 -12 13 -25 35 -36 37
-18 46 -46 21 -67 -17 -13 -58 -10 -63 6 -2 7 8 9 27 6 42 -6 40 20 -5 47 -36
21 -45 47 -23 69 16 16 53 15 68 -3z m150 6 c0 -5 -11 -8 -25 -6 -25 2 -25 1
-25 -66 0 -38 -4 -69 -8 -69 -5 0 -9 27 -10 60 -1 66 -6 82 -26 74 -8 -3 -17
-1 -21 5 -4 7 14 11 54 11 34 0 61 -4 61 -9z m150 -66 c0 -87 -15 -103 -17
-18 -1 33 -6 59 -12 61 -9 3 -9 8 0 18 22 27 29 13 29 -61z m119 44 c31 -56
-15 -136 -66 -114 -16 8 -15 9 7 13 31 5 50 20 50 38 0 12 -4 12 -19 2 -17
-10 -23 -9 -40 6 -25 23 -27 49 -5 71 23 22 55 15 73 -16z m68 -39 c0 -39 -4
-73 -8 -76 -5 -3 -9 22 -9 55 0 34 -4 61 -10 61 -5 0 -7 7 -4 15 4 8 12 15 19
15 9 0 12 -20 12 -70z m118 61 c3 -5 -9 -11 -27 -13 -21 -2 -34 -9 -36 -20 -2
-12 2 -15 16 -11 12 3 28 -3 41 -16 26 -26 26 -33 3 -61 -50 -62 -113 41 -66
108 15 22 58 30 69 13z m-897 -65 c3 -3 -60 -6 -139 -5 -79 0 -136 3 -127 7
20 8 257 6 266 -2z m1262 -6 c0 -9 -237 -6 -246 2 -3 4 51 6 120 5 69 -1 126
-4 126 -7z m30 0 c0 -5 -5 -10 -11 -10 -5 0 -7 5 -4 10 3 6 8 10 11 10 2 0 4
-4 4 -10z m-810 -60 c0 -5 -5 -10 -11 -10 -5 0 -7 5 -4 10 3 6 8 10 11 10 2 0
4 -4 4 -10z m574 -212 c-3 -4 -30 -21 -62 -39 -31 -18 -153 -88 -271 -156
-117 -68 -225 -126 -240 -129 -20 -4 -86 30 -306 156 -154 89 -283 165 -287
168 -4 4 258 7 582 7 323 0 586 -3 584 -7z"/>
<path d="M3385 4126 c-11 -17 -15 -42 -13 -85 2 -34 6 -61 10 -61 4 0 19 5 33
12 23 10 25 16 25 79 0 52 -4 68 -16 73 -22 8 -22 9 -39 -18z"/>
<path d="M3485 4139 c-9 -14 -12 -110 -4 -115 14 -8 26 22 27 68 1 47 -10 69
-23 47z"/>
<path d="M3311 4051 c-6 -11 -11 -41 -11 -66 0 -39 3 -46 16 -41 9 3 18 6 20
6 2 0 4 24 4 54 0 59 -13 79 -29 47z"/>
<path d="M3419 3598 c0 -2 -2 -17 -3 -35 -2 -28 0 -31 16 -22 22 12 25 59 3
59 -8 0 -15 -1 -16 -2z"/>
<path d="M3330 3533 c0 -23 5 -33 15 -33 10 0 15 10 15 33 0 23 -5 34 -15 34
-10 0 -15 -11 -15 -34z"/>
<path d="M3400 3265 c0 -25 4 -33 14 -29 27 10 27 64 0 64 -9 0 -14 -11 -14
-35z"/>
<path d="M3319 3277 c0 -1 -3 -17 -5 -34 -4 -25 -1 -33 10 -33 9 0 16 3 17 8
0 4 2 17 5 29 2 12 -2 23 -11 27 -8 3 -15 4 -16 3z"/>
<path d="M3405 2990 c-4 -7 -9 -26 -10 -42 -4 -40 29 -35 33 6 4 32 -11 55
-23 36z"/>
<path d="M3307 2964 c-4 -4 -7 -20 -7 -36 0 -22 4 -29 17 -26 11 2 17 13 18
32 0 28 -14 43 -28 30z"/>
<path d="M3397 2694 c-4 -4 -7 -22 -7 -41 0 -30 2 -33 19 -23 14 7 19 19 17
37 -3 27 -16 39 -29 27z"/>
<path d="M3298 2651 c-5 -35 0 -51 17 -51 21 0 25 59 4 70 -14 8 -18 4 -21
-19z"/>
<path d="M895 3155 c3 -35 8 -74 10 -87 2 -13 6 -50 10 -83 4 -33 8 -73 10
-90 2 -16 7 -52 10 -80 3 -27 7 -68 10 -90 3 -22 7 -74 10 -115 12 -174 17
-226 26 -240 5 -10 7 -1 4 25 -2 22 -6 96 -10 165 -12 241 -21 342 -41 455 -3
17 -7 39 -9 50 -10 68 -28 155 -32 155 -3 0 -2 -29 2 -65z"/>
<path d="M1900 3874 c0 -8 5 -12 10 -9 6 4 8 11 5 16 -9 14 -15 11 -15 -7z"/>
<path d="M2331 2774 c0 -11 3 -14 6 -6 3 7 2 16 -1 19 -3 4 -6 -2 -5 -13z"/>
<path d="M2331 2734 c0 -11 3 -14 6 -6 3 7 2 16 -1 19 -3 4 -6 -2 -5 -13z"/>
<path d="M2332 2640 c0 -14 2 -19 5 -12 2 6 2 18 0 25 -3 6 -5 1 -5 -13z"/>
<path d="M960 1700 c0 -72 2 -80 19 -80 44 0 51 10 51 74 0 67 -11 86 -47 86
-22 0 -23 -3 -23 -80z"/>
<path d="M2709 1744 c0 -5 -2 -16 -3 -24 -3 -13 -8 -51 -22 -162 -3 -26 -1
-28 31 -28 31 0 35 3 30 23 -2 12 -10 60 -16 107 -9 76 -18 110 -20 84z"/>
<path d="M3049 1760 c-1 -11 -1 -36 -1 -55 0 -82 1 -85 26 -85 33 0 43 17 45
81 2 60 -4 71 -46 77 -17 2 -23 -3 -24 -18z"/>
<path d="M3468 1739 c-2 -28 1 -43 10 -46 19 -8 21 -2 15 45 -7 54 -20 54 -25
1z"/>
<path d="M3689 1797 c0 -7 -2 -19 -4 -28 -4 -22 10 -43 24 -35 16 11 13 63 -4
70 -8 3 -15 0 -16 -7z"/>
<path d="M3930 1751 c0 -16 -3 -36 -6 -45 -4 -11 0 -16 14 -16 14 0 19 6 17
18 -2 9 -4 29 -4 45 -1 36 -21 35 -21 -2z"/>
<path d="M3596 1519 c-9 -49 -7 -69 8 -69 10 0 12 11 8 48 -6 58 -8 61 -16 21z"/>
<path d="M3710 1524 c0 -45 24 -42 28 4 2 24 -1 32 -12 32 -12 0 -16 -10 -16
-36z"/>
<path d="M3820 1532 c0 -16 3 -32 7 -35 12 -13 30 13 25 38 -6 35 -32 32 -32
-3z"/>
<path d="M3936 1507 c-8 -49 -3 -68 13 -51 5 5 6 29 2 54 l-7 45 -8 -48z"/>
<path d="M2648 1239 c-22 -12 -23 -48 -3 -55 15 -6 45 11 45 25 0 4 -6 15 -12
24 -10 12 -17 14 -30 6z"/>
<path d="M2825 1170 c-8 -26 6 -43 31 -38 13 2 19 12 19 28 0 34 -40 41 -50
10z"/>
<path d="M601 4872 c-5 -9 -12 -44 -16 -77 l-6 -60 20 23 c16 18 18 28 11 42
-7 13 -7 21 0 25 13 8 32 -4 25 -16 -4 -5 0 -9 7 -9 9 0 9 -3 -2 -10 -8 -5
-10 -10 -4 -10 16 0 34 22 34 42 0 11 -5 15 -15 12 -8 -4 -15 -1 -15 5 0 6 5
11 10 11 19 0 10 17 -15 28 -20 9 -26 9 -34 -6z"/>
<path d="M540 4750 c1 -14 7 -36 15 -50 14 -25 14 -24 11 13 -4 45 -26 76 -26
37z"/>
</g>
</svg>
