<?xml version="1.0" standalone="no"?>
<!DOCTYPE svg PUBLIC "-//W3C//DTD SVG 20010904//EN"
 "http://www.w3.org/TR/2001/REC-SVG-20010904/DTD/svg10.dtd">
<svg version="1.0" xmlns="http://www.w3.org/2000/svg"
 width="1080.000000pt" height="1080.000000pt" viewBox="0 0 1080.000000 1080.000000"
 preserveAspectRatio="xMidYMid meet">
<metadata>
Created by potrace 1.11, written by Peter Selinger 2001-2013
</metadata>
<g transform="translate(0.000000,1080.000000) scale(0.100000,-0.100000)"
fill="#000000" stroke="none">
<path d="M4195 9433 c9 -74 8 -107 -1 -166 l-6 -39 -30 29 c-33 31 -47 54 -53
85 -7 36 -13 31 -49 -45 -38 -79 -44 -123 -25 -191 9 -34 8 -44 -11 -78 -30
-53 -33 -117 -9 -164 24 -48 24 -49 -3 -51 -24 -2 -58 -36 -58 -57 0 -25 28
-49 65 -55 33 -5 46 -16 84 -65 46 -61 204 -224 276 -287 186 -160 406 -272
605 -310 l65 -13 0 -81 c0 -71 -3 -84 -25 -111 -58 -71 -145 -118 -324 -175
l-134 -43 2 -73 2 -73 -80 0 c-45 0 -115 -8 -156 -18 -73 -18 -77 -18 -105 0
-44 27 -134 51 -183 49 -118 -4 -202 -89 -180 -184 10 -47 26 -67 80 -107 l36
-27 -299 3 c-164 2 -300 0 -303 -4 -2 -4 -7 -50 -12 -102 -4 -52 -8 -111 -10
-130 -6 -74 -17 -420 -17 -530 0 -125 12 -513 18 -570 2 -19 6 -73 10 -120 3
-47 8 -96 10 -110 2 -14 6 -55 10 -91 3 -36 7 -76 10 -90 6 -37 13 -89 20
-144 4 -27 13 -81 21 -120 7 -38 16 -88 20 -109 3 -21 17 -87 30 -145 14 -58
27 -116 30 -129 8 -38 74 -253 104 -337 72 -205 166 -402 292 -613 l20 -32
-119 5 c-147 6 -327 17 -493 30 -30 2 -102 7 -160 11 -58 3 -112 7 -121 9 -48
9 -32 -19 101 -188 77 -97 140 -179 140 -182 0 -3 -63 -85 -140 -183 -76 -97
-136 -180 -132 -184 6 -6 32 -10 162 -23 25 -3 104 -8 175 -11 72 -4 131 -8
133 -9 14 -12 -158 -315 -190 -336 -16 -10 7 -43 66 -96 167 -149 510 -288
763 -309 43 -4 79 -7 80 -8 1 -1 -20 -45 -46 -98 -56 -114 -162 -274 -225
-342 -25 -27 -46 -52 -46 -56 0 -11 84 -87 156 -139 38 -28 75 -56 82 -61 7
-6 68 -40 137 -74 258 -132 537 -210 850 -241 39 -4 84 -9 100 -11 40 -6 349
-5 400 1 22 2 69 7 105 10 36 3 72 8 80 10 8 2 35 6 60 9 37 5 182 34 250 50
192 46 458 164 625 276 85 57 195 156 195 175 0 8 -10 22 -23 32 -35 28 -119
139 -173 229 -55 90 -120 221 -113 228 2 2 34 7 71 10 291 30 659 188 801 345
37 41 44 56 29 63 -27 10 -204 320 -190 333 2 2 62 6 133 9 122 6 225 14 263
21 9 2 29 4 45 4 37 1 35 24 -5 70 -18 20 -43 50 -55 66 -12 17 -60 77 -106
135 l-83 105 138 174 c76 97 138 181 138 187 0 7 -13 10 -32 8 -18 -1 -76 -6
-128 -9 -52 -3 -115 -8 -140 -10 -25 -2 -85 -7 -135 -10 -49 -3 -128 -8 -175
-10 -47 -3 -131 -8 -187 -10 l-102 -4 21 37 c11 20 38 67 59 103 138 238 267
567 345 879 2 8 17 76 34 150 34 151 46 214 65 353 3 23 8 49 10 57 2 8 6 42
10 75 3 33 8 71 10 85 2 14 6 52 9 85 4 33 8 83 11 110 19 187 29 449 29 740
0 240 -10 568 -18 610 -3 11 -5 34 -5 51 l-1 31 -277 1 c-153 0 -285 1 -293 1
-8 1 1 9 20 20 55 29 75 63 75 131 0 44 -6 66 -21 86 -40 55 -70 69 -153 72
-122 6 -255 -37 -355 -113 l-46 -35 -38 23 c-34 20 -96 49 -162 74 -24 10 -25
14 -25 93 0 63 -3 85 -15 91 -8 4 -62 22 -120 39 -127 39 -178 62 -251 112
-73 50 -102 89 -93 125 10 36 10 84 2 109 -6 19 1 23 70 44 213 65 459 183
622 298 185 131 372 343 415 471 51 154 9 288 -101 326 -89 30 -192 -5 -244
-84 -46 -69 -38 -144 23 -217 l26 -31 -77 2 c-46 1 -107 11 -152 24 -386 116
-527 174 -705 288 -38 25 -71 47 -73 48 -2 2 2 14 9 26 40 76 -25 149 -134
151 -105 2 -166 -58 -143 -142 6 -23 -2 -30 -116 -101 -140 -87 -201 -120
-308 -168 -81 -36 -227 -86 -285 -97 -36 -6 -36 -6 -28 22 11 42 6 88 -11 122
-19 38 -72 82 -97 82 -16 0 -19 7 -19 42 0 52 -14 93 -63 186 -39 73 -124 202
-134 202 -3 0 -2 -30 2 -67z m277 -2214 c29 -17 54 -32 55 -33 1 0 -55 -1
-124 -1 -85 -1 -118 2 -102 8 13 5 44 20 69 33 25 12 46 23 47 23 1 1 26 -13
55 -30z m996 -17 l33 -20 -97 0 c-86 0 -96 2 -79 14 10 8 23 14 28 14 5 0 21
9 35 21 22 17 28 18 37 6 6 -8 25 -24 43 -35z m530 19 c37 -16 74 -31 82 -34
8 -3 -52 -6 -134 -6 l-149 -1 64 34 c35 18 65 34 67 35 2 0 34 -12 70 -28z
m600 -17 l67 -23 -150 0 c-149 0 -150 0 -110 16 22 9 53 25 69 34 23 14 33 15
43 7 8 -6 44 -21 81 -34z m-1591 -19 c2 -1 -43 -2 -99 -3 l-101 -1 54 28 54
28 45 -25 c25 -14 46 -26 47 -27z m-784 -3773 c31 -41 132 -154 215 -241 52
-55 63 -74 40 -66 -7 2 -39 6 -71 9 -77 8 -181 24 -240 37 -41 10 -47 14 -43
33 32 177 52 266 61 266 5 -1 23 -17 38 -38z m2432 -114 c14 -70 25 -129 25
-131 0 -4 -77 -22 -131 -32 -33 -6 -92 -14 -164 -21 l-60 -6 42 43 c94 99 138
148 196 217 34 41 62 70 64 65 1 -4 14 -65 28 -135z m-1830 -475 c56 -49 74
-62 164 -127 114 -83 235 -161 339 -220 l83 -47 63 34 c78 43 107 60 120 69 6
5 56 38 111 75 55 36 149 104 210 150 101 77 111 82 123 66 17 -22 254 -495
250 -498 -15 -13 -100 -49 -175 -73 -115 -39 -284 -72 -453 -88 -96 -10 -422
-10 -520 0 -248 24 -473 79 -602 147 l-27 14 130 263 c71 144 135 262 141 262
6 0 25 -12 43 -27z"/>
</g>
</svg>
